<?xml version="1.0" encoding="UTF-8"?>
<svg id="Layer_2" data-name="Layer 2" xmlns="http://www.w3.org/2000/svg" viewBox="0 0 362.18 61.56">
  <defs>
    <style>
      .cls-1 {
        fill: #00005b;
      }

      .cls-1, .cls-2 {
        stroke-width: 0px;
      }

      .cls-2 {
        fill: #5296b8;
      }
    </style>
  </defs>
  <g id="Layer_1-2" data-name="Layer 1">
    <g>
      <g>
        <path class="cls-1" d="M58.72,32.91c0-11.05,9.85-20.3,21.58-20.3s21.58,9.25,21.58,20.3-9.85,20.38-21.58,20.38-21.58-9.32-21.58-20.38ZM89.85,32.91c0-5.26-4.36-9.7-9.55-9.7s-9.55,4.44-9.55,9.7,4.36,9.78,9.55,9.78,9.55-4.51,9.55-9.78Z"/>
        <path class="cls-1" d="M106.47,32.91c0-11.05,9.93-20.3,21.66-20.3,6.62,0,11.96,2.71,15.72,6.92l-8.42,6.99c-1.73-1.88-4.66-3.31-7.37-3.31-5.04,0-9.32,4.44-9.32,9.62s4.29,9.85,9.32,9.85c2.78,0,5.79-1.43,7.59-3.46l8.42,6.92c-3.83,4.36-9.25,7.14-16.09,7.14-11.66,0-21.51-9.32-21.51-20.38Z"/>
        <path class="cls-1" d="M174.14,49.6c-2.33,2.18-6.17,3.68-9.47,3.68-7.29,0-12.41-5.19-12.41-12.48v-17.14h-5.11v-10.15h5.11V2.83h12.18v10.68h8.05v10.15h-8.05v14.81c0,2.48,1.5,4.21,3.53,4.21,1.43,0,2.86-.53,3.61-1.28l2.56,8.2Z"/>
        <path class="cls-1" d="M178.43,32.91c0-11.05,9.85-20.3,21.58-20.3s21.58,9.25,21.58,20.3-9.85,20.38-21.58,20.38-21.58-9.32-21.58-20.38ZM209.56,32.91c0-5.26-4.36-9.7-9.55-9.7s-9.55,4.44-9.55,9.7,4.36,9.78,9.55,9.78,9.55-4.51,9.55-9.78Z"/>
        <path class="cls-1" d="M253.63,12.61v10.6c-7.9,0-12.71,4.51-12.71,11.66l-.08-.15v17.67h-12.71V13.51h12.71v7.22c2.56-5.04,7.14-8.12,12.78-8.12Z"/>
        <path class="cls-1" d="M297.17,39.23h-30.98l-5.79,13.16h-3.01L280.17.73h3.01l22.78,51.66h-3.01l-5.79-13.16ZM295.96,36.52l-14.29-32.41-14.29,32.41h28.57Z"/>
        <path class="cls-1" d="M313.11,2.68c0-1.2.98-2.26,2.26-2.26,1.2,0,2.26,1.05,2.26,2.26,0,1.28-1.05,2.26-2.26,2.26-1.28,0-2.26-.98-2.26-2.26ZM314.01,13.51h2.71v38.88h-2.71V13.51Z"/>
        <path class="cls-1" d="M362.08.14c-.07,8.51-.07,17.11,0,25.79.02,2.33.05,4.66.08,6.98.06,1.49,0,3.57-.57,5.96-.73,3.1-1.94,5.23-2.22,5.71-.8,1.38-2.69,4.54-6.57,6.76-2.54,1.46-5.51,2.26-8.77,2.26-9.47,0-17.45-9.32-17.45-20.38s7.97-20.3,17.45-20.3c6.77,0,12.26,3.46,15.34,9.02V.14h2.71ZM359.38,33.23c0-10.3-6.17-17.6-14.81-17.6s-15.26,8.05-15.26,17.6,6.99,17.67,15.26,17.67,14.81-7.29,14.81-17.67Z"/>
      </g>
      <path class="cls-1" d="M53.81,26.86c0,14.9-9.24,25.52-25.06,26.97v-10.2c9.7-1.45,13.83-8.28,13.83-16.7,0-9.5-5.26-16.99-17.93-16.99h-6.55v22.86H7.22V0h17.64c18.29,0,28.95,11.02,28.95,26.86Z"/>
      <path class="cls-2" d="M25.32,43.91v10.42h-7.22v7.23H7.22v-7.23H0v-10.87h7.22v-7.23h10.88v7.69h6.62c.2,0,.4,0,.6-.01Z"/>
    </g>
  </g>
</svg>